<svg xmlns="http://www.w3.org/2000/svg" width="358" height="480" viewBox="0 0 358 480"><path fill="#BBB" fill-rule="evenodd" d="M178.5124 480S0 264.662 0 170.4984C0 76.3347 79.9227 0 178.5124 0c98.5897 0 178.5124 76.3347 178.5124 170.4984C357.0248 264.662 178.5124 480 178.5124 480zm100.471-175.435c34.4796-59.041 53.4752-108.6323 54.2397-133.1707-.7644-84.958-69.9593-148.915-154.7106-148.915S23.8017 86.4363 23.8017 171.3943c0 24.5384 19.76 74.1297 54.2398 133.1706 10.768 18.4385 78.1023 110.327 99.9475 139.7325 22.892-29.4055 90.2262-121.294 100.9943-139.7326zm-137.4775-53.3634c-17.7606 8.7558-40.0328-.12-48.6387-20.266-3.6944-8.7033-3.785-19.1008 0-27.0216-19.484-9.821-28.9832-31.5545-21.6172-51.3407v-1.351c4.5617-8.4963 11.516-15.4824 18.915-20.2662h1.3512l1.351-1.351c-8.7558-17.7604.12-40.0326 20.2662-48.6385 8.7032-3.6945 19.1006-3.785 27.0214 0 9.821-19.4842 31.5546-28.9832 51.3408-21.6172h1.351c8.4963 4.5616 15.4823 11.5157 20.266 18.915v1.351l1.3512 1.3512c17.7605-8.756 40.0327.12 48.6386 20.266 3.6944 8.7033 3.785 19.1007 0 27.0215 19.484 9.821 28.983 31.5545 21.6172 51.3407v1.351c-4.5617 8.4963-11.5158 15.4824-18.915 20.2662h-1.351l-1.3512 1.351c8.7558 17.7604-.12 40.0327-20.266 48.6386-8.7033 3.6944-19.1007 3.785-27.0215 0-9.821 19.484-31.5547 28.983-51.341 21.617h-1.351c-8.4962-4.5615-15.4823-11.5156-20.266-18.915v-1.351l-1.351-1.351zm-4.1565-20.355h1.2698l16.5082-6.3493 5.0794 15.2383c2.4716 5.2908 6.3407 9.147 10.1587 11.4287 11.2082 3.5575 22.3315-1.4694 26.667-11.4287l5.0794-15.2383 16.5082 6.3493c4.5984 1.8192 9.8228 1.823 15.2383 0 9.1653-4.4348 13.4816-15.589 8.889-24.1272v-1.27l-6.3493-16.508 15.2382-5.0794c5.2908-2.4718 9.147-6.341 11.4287-10.159 3.5576-11.208-1.4693-22.3313-11.4286-26.6668l-15.2382-5.0794 6.3492-16.508c1.8193-4.5985 1.8232-9.823 0-15.2384-4.4348-9.1654-15.589-13.4816-24.1272-8.889h-1.27l-16.508 6.3493-5.0794-15.2383c-2.4717-5.2908-6.3408-9.147-10.1588-11.4286-11.2082-3.5575-22.3315 1.4693-26.667 11.4286l-5.0794 15.2383-16.508-6.3493c-4.5985-1.8192-9.823-1.823-15.2384 0-9.1653 4.4348-13.4816 15.5892-8.889 24.1273v1.2698l6.3493 16.508-15.2382 5.0796c-5.291 2.4718-9.147 6.341-11.4287 10.159-3.5575 11.208 1.4693 22.3314 11.4287 26.6668l15.2382 5.0795-6.3492 16.508c-1.8193 4.5984-1.8232 9.823 0 15.2383 4.4348 9.1654 15.589 13.4817 24.1272 8.889zm41.5367-50.5117c7.8083 0 14.4307-6.6224 14.4307-14.4308 0-8.5298-6.6225-15.1522-14.4308-15.1522-8.53 0-15.1523 6.6224-15.1523 15.1522 0 7.8084 6.6223 14.4307 15.1522 14.4307zm.1797 19.2633c-19.3486 0-34.5954-15.247-34.5954-33.5143 0-19.3485 15.2468-34.5953 34.5953-34.5953 18.2673 0 33.5142 15.2468 33.5142 34.5953 0 18.2674-15.247 33.5143-33.5143 33.5143z"/></svg>