<svg xmlns="http://www.w3.org/2000/svg" width="480" height="400" viewBox="0 0 480 400"><path fill="#808080" fill-rule="nonzero" d="M435.7143 125.6727c0-69.62-48.419-84.2375-89.1927-84.2375-37.9706 0-80.783 39.889-94.0346 55.25-6.116 7.185-18.858 7.185-24.974 0-13.2515-15.361-56.064-55.25-94.0346-55.25-40.7738 0-89.1927 14.6176-89.1927 84.2375 0 45.3397 47.1447 87.4585 47.6544 87.954L240 352.371l147.805-138.4966c.7646-.7432 47.9093-42.862 47.9093-88.2017zM480 121.875c0 62.5-58.9286 114.8438-61.3393 117.1875l-166.875 156.25C248.5714 398.4375 244.2857 400 240 400s-8.5714-1.5625-11.7857-4.6875L61.0713 238.5417C58.9287 236.7187 0 184.375 0 121.875 0 45.573 47.9464 0 128.0357 0 174.9107 0 218.8393 35.9375 240 56.25 261.1607 35.9375 305.0893 0 351.9643 0 432.0536 0 480 45.573 480 121.875z"/></svg>