<svg xmlns="http://www.w3.org/2000/svg" width="480" height="480" viewBox="0 0 480 480"><path fill="#BBB" fill-rule="nonzero" d="M240 461.5385c122.3523 0 221.5385-99.1862 221.5385-221.5385S362.3523 18.4615 240 18.4615 18.4615 117.6477 18.4615 240 117.6477 461.5385 240 461.5385zM240 480C107.4517 480 0 372.5483 0 240 0 107.4517 107.4517 0 240 0c132.5483 0 240 107.4517 240 240 0 132.5483-107.4517 240-240 240zm90.3297-255.8434c0-32.1322-22.3472-38.8788-41.166-38.8788-17.5248 0-37.2844 18.4103-43.4005 25.5-2.8228 3.316-8.7036 3.316-11.5264 0-6.116-7.0897-25.8757-25.5-43.4006-25.5-18.8187 0-41.166 6.7466-41.166 38.8788 0 20.926 21.7592 40.3655 21.9944 40.5942L240 328.7866l68.2177-63.9215c.353-.343 22.112-19.7824 22.112-40.7084zm20.4395-1.7528c0 28.8462-27.1978 53.005-28.3104 54.0866l-77.0192 72.1154c-1.4836 1.4423-3.4616 2.1634-5.4396 2.1634-1.978 0-3.956-.721-5.4396-2.1634L157.4176 276.25c-.989-.8413-28.1868-25-28.1868-53.8462 0-35.2163 22.129-56.25 59.0934-56.25 21.6346 0 41.9093 16.5866 51.6758 25.9616 9.7665-9.375 30.0412-25.9616 51.6758-25.9616 36.9643 0 59.0934 21.0337 59.0934 56.25z"/></svg>