<svg xmlns="http://www.w3.org/2000/svg" width="144" height="136" viewBox="0 0 144 136">
    <g fill="none" fill-rule="evenodd">
        <path fill="#DFDFDF" d="M103.13 94.416C96.423 80.106 78.612 73.6 63.347 79.887a31.003 31.003 0 0 0-5.475 2.927c1.586 1.77 2.573 4.113 2.686 6.652.238 5.32-4.676 9.851-9.805 9.851a9.44 9.44 0 0 1-4.36-1.059c-1.79 6.061-1.453 12.716 1.456 18.924 6.707 14.31 24.518 20.815 39.783 14.529 15.264-6.287 22.203-22.983 15.498-37.295"/>
        <path fill="#D6DBC6" d="M102.737 33.977a1.37 1.37 0 0 1-.58.105c-.636-.024-3.598-3.308-3.887-3.92-3.024-6.394-2.24-.506-8.27 0-1.458-.29-.873-1.815-1.981-3.002-.572-.611-1.092-1.38-1.192-2.298-.1-.919.371-1.972 1.125-2.09.538-.086 2.672-.418 3.093 0 1.692 1.674 1.638 3.996 0 10.294 1.638.529 3.111 1.495 4.2 2.759.56.65 1.037 1.431 1.003 2.267-.032.836-.748 1.685-1.64 1.652-.634-.025-3.144.448-3.563 0C90.765 39.444 90 47.232 90 37c0-7.603 2.66-9.67 10.674-15.499 2.77-2.015 2.12-2.758 10.029-6.29 3.147-1.405 4.338-5.875 4.418-8.992.02-.775-.093-1.607-.763-2.05-.94-.623-2.727-.912-3.655 0-.926.91-2.703 7.437-2.703 7.437 3.901 5.394-3.757 4.69-9.406 9.267-1.178-1.281.029-3.978-.324-5.724-.181-.898-.228-1.887.195-2.69.424-.804 1.448-1.303 2.209-.853.542.321.795.995.948 1.63.615 2.555-.637 3.764 2.175 5.507 7.4-3.873 2.203 2.13 6.203 6.12 5.61 1.98 3.382.169 4.117 0 .735-.17.841-.092 1.004-1.095.163-1.003-.237-1.526-1.004-2.267C113.35 20.761 109 15.257 109 16L92 27.16c.79-.179 1.928.133 2.609 0 12.257-2.396 9.36 1.807 10.391 3.003.562.65-1.169 1.431-1.203 2.267-.018.478-.26.961-.631 1.28 6.045-3.637 13.807-3.362 19.506 1.051-3.386 2.443-6.884 4.936-10.81 5.681-3.928.746-8.433-.685-10.533-4.637l-1.304.313a17.782 17.782 0 0 1 2.712-2.14zm12.386-18.24l1.02.34c1.636-.716 1.735-2.268 3.548-2.077.934.099 3.676 1.62 4.317 2.254.64.636.786 1.742.096 2.317-.491.41-3.594 1.476-4.263 1.429-2.687-.189-2.924-2.406-4.718-4.264zm-10.324 66.415l-.634.99a9.042 9.042 0 0 1 .021 5.636c-.304.947-.815 1.907-1.751 2.452-.937.546-2.384.492-2.991-.325-.432-.583-.335-1.351-.148-2.033.756-2.74 2.778-5.209 5.503-6.72zM26.925 42.705l.4-1.073c.779 6.938-3.198 14.169-9.34 16.986.06-3.432.14-6.967 1.455-10.115 1.314-3.149 4.186-5.85 7.485-5.798zm90.085 42.2l1.71.052c1.82-1.76 2.645-3.318 5.384-3.832 1.41-.265 4.724-.644 6.106 0 1.383.644 3.356 3 2.79 4.14-.403.812-1.798 2.849-2.79 3.073-3.987.901-9.272-1.514-13.2-3.433zm-4.47-2.866l-.317 1.023a10.407 10.407 0 0 1 .982 5.276c-.074.932-.3 1.908-.926 2.561-.625.651-1.745.82-2.35.147-.432-.482-.49-1.216-.462-1.883.112-2.68 1.24-5.297 3.073-7.124zm-2.205 1.113l.5-1.02c-1.107-1.637-1.564-3.503-1.302-5.317.134-.934.499-1.91 1.447-2.55.948-.64 2.614-.784 3.494-.094.628.493.69 1.232.63 1.9-.242 2.689-1.995 5.29-4.77 7.081zm-8.283-1.887l.414-.998a12.27 12.27 0 0 1-.223-5.57c.183-.944.51-1.907 1.156-2.474.648-.565 1.679-.554 2.142.236.329.564.288 1.325.18 2.006-.437 2.73-1.784 5.228-3.67 6.8zm-9.69-3.775l.43-.719c-.245-1.779-.131-3.542.326-5.026.234-.764.588-1.49 1.168-1.735.58-.244 1.42.173 1.726 1.057.218.63 1.138.833.988 1.392-.078.287.1 1.444 0 1.712-.684 1.827-3.17 2.755-4.637 3.32zm1.888 0l-.646.769a7.532 7.532 0 0 1-.597 4.706c-.364.763-.9 1.518-1.754 1.888-.856.37-2.075.191-2.5-.546-.303-.527-.138-1.158.097-1.711.94-2.219 2.923-4.094 5.4-5.106zm-72.603 2.888l-.873.747c-.101 1.664-.763 3.366-1.888 4.849-.579.764-1.337 1.508-2.316 1.824-.98.318-2.188.038-2.427-.763-.17-.571.172-1.215.562-1.77 1.57-2.234 4.118-4.029 6.942-4.887zm-.887-1.775l-.685-.874a10.64 10.64 0 0 1-5.21-2.186c-.762-.604-1.464-1.37-1.627-2.303-.163-.932.412-2.023 1.387-2.168.696-.106 1.37.27 1.93.68 2.255 1.651 3.799 4.168 4.205 6.851zm23.446-2l.144-.838c-1.069-1.128-1.738-2.504-1.91-3.924-.087-.731-.027-1.518.496-2.116.523-.598 1.63-.897 2.362-.47.521.307.707.865.794 1.384.35 2.086-.34 4.275-1.886 5.964zm-1.56 1.887l.029.85c1.21.973 2.098 2.246 2.533 3.631.224.712.321 1.503-.047 2.168-.368.666-1.335 1.117-2.097.793-.543-.231-.823-.76-1.004-1.262-.731-2.022-.517-4.292.586-6.18zm-9.675 1.888l-.645.772a7.25 7.25 0 0 1-.517 4.68c-.354.762-.888 1.518-1.753 1.898-.866.378-2.116.22-2.566-.505-.32-.519-.163-1.15.066-1.7.916-2.215 2.905-4.105 5.415-5.145zm-6.638-4.775l.145-.836c-1.07-1.129-1.74-2.507-1.91-3.926-.089-.73-.028-1.518.495-2.116.522-.598 1.63-.897 2.362-.47.52.307.707.864.794 1.384.352 2.086-.34 4.277-1.886 5.964zm8.437.887l.143-.838c-1.068-1.128-1.738-2.504-1.91-3.923-.086-.731-.026-1.518.496-2.116.523-.598 1.63-.899 2.362-.47.521.306.707.864.794 1.383.353 2.086-.34 4.277-1.885 5.964zm95.44-21.852c-3.098 1.989-7.416 1.068-10.52-1.202-3.102-2.269-5.262-5.639-7.342-8.92 7.487-.89 15.523 3.762 18.873 10.924l-1.01-.802zM35.79 31.81l.955-.404c-4.114 5.223-11.346 6.95-16.985 4.056.315-2.379 4.698-4.53 7.59-5.605 2.893-1.075 6.447-.643 8.44 1.953z"/>
        <path fill="#FFECE9" d="M59.08 60.215c2.696-4.372 7.349-7.26 12.636-7.26 8.338 0 15.098 10.015 15.098 18.873C86 86 80.338 86 72 86c-8.339 0-15.382-8.143-15.382-17.003 0-2.367.482-4.614 1.348-6.636-2.175 3.384-6.415 6.63-14.56 9.467C30.197 64 29 58.886 29 51.068 29 43.252 36.183 35 44 35c7.818 0 12.618 6 16 13 0 3.886.742 8.11-.92 12.215zm6.995-39.3c-1.211.412-3.362-1.004-4.988-3.344-1.74-2.504-2.218-5.118-1.07-5.837 1.148-.72 3.49.725 5.23 3.23.145.208.281.418.409.627l.009-.025c.97-2.576 3.621-5.952 4.847-5.566 1.008.319.739 3.083.072 5.489 2.64-.698 6.079-.999 6.416-.012.409 1.2-3.914 3.845-6.488 4.848-1.389.542-2.732.745-3.739.629a1.262 1.262 0 0 1-.698-.04zM49.07 101c-8.932-1-9.437-6.975-9.437-12.187a9.435 9.435 0 0 1 9.437-9.435C54.28 79.378 61 84.788 61 90s-3 12-11.931 11zm0-66C43.336 35 38 32.267 38 26.534 38 20.801 42.267 13 48 13s16.167 4.97 16.167 10.704C64.167 29.436 54.8 35 49.069 35zM99.08 71.828c-7.817 0-14.154-6.337-14.154-14.155C84.927 49.857 89.183 43 97 43c7.818 0 16.235 6.857 16.235 14.673 0 7.818-6.336 14.155-14.154 14.155zM74.547 52.956c-6.776 0-12.268-7.38-12.268-14.154 0-6.776 5.492-12.268 12.268-12.268 6.774 0 12.267 5.492 12.267 12.268 0 6.775-5.493 14.154-12.267 14.154z"/>
        <path fill="#8F8F8F" d="M46.994 50.658c-4.005-4.388-8.051 4.104-2.887 4.535 2.442.203 3.82-2.203 3.948-4.395.169-2.886-1.402-5.925-4.145-6.947-6.424-2.392-8.662 5.816-8.233 10.698.53 6.034 5.993 9.829 11.546 6.685 5.9-3.34 6.456-12.814-.63-15.018l-.173 1.508c4.412-.246 5.305-6.366 1.754-8.579-5.4-3.366-10.379 2.416-12.462 6.912-2.626 5.664-3.357 12.788.821 17.895 3.863 4.722 9.922 5.32 14.743 1.715 4.264-3.188 9.104-9.478 6.682-15.154-1.276-2.99-3.89-3.577-6.67-4.502-.952-.317-2.246-.711-2.9-1.54-1.198-1.514-1.018-3.189.706-4.07 1.793-.917 3.853-.524 5.576.367 7.458 3.857 7.239 13.737 3.29 20.043-3.8 6.072-12.895 12.977-19.917 7.917-3.612-2.603-6.144-7.428-7.367-11.654-1.305-4.515-1.142-9.327.924-13.576 3.84-7.899 15.123-11.256 20.824-3.318.568.789 1.86.001 1.286-.797-3.28-4.568-9.22-6.349-14.508-4.69-5.855 1.834-9.773 7.658-10.676 13.642-1.04 6.894 1.754 14.035 6.116 19.234 4.251 5.065 10.434 5.318 16.01 2.31 5.585-3.014 10.277-8.957 11.396-15.355.993-5.666-1.227-12.032-6.334-14.933-2.11-1.196-4.595-1.68-6.89-.755-1.847.742-3.208 2.447-2.754 4.55.57 2.645 3.385 3.667 5.624 4.335 2.725.814 5.039 2.044 5.358 5.25.226 2.267-.681 4.43-1.887 6.285-2.6 4-7.198 8.318-12.292 7.121-4.568-1.072-7.41-5.614-7.788-10.141-.392-4.682 1.502-10.218 4.573-13.729 1.708-1.952 4.195-3.326 6.802-2.484 2.86.924 3.546 5.968-.067 6.17-.854.046-.991 1.253-.174 1.508 4.733 1.473 5.263 7.324 2.14 10.699-3.157 3.411-8.953 3.311-10.67-1.477-1.025-2.855-.758-6.97.669-9.644 1.302-2.445 4.408-3 6.462-1.118 1.037.952 1.564 2.273 1.688 3.653.108.611.08 1.219-.082 1.826-.78 1.88-.94 1.92-.478.121.66.723 1.704-.381 1.046-1.103"/>
        <path fill="#8F8F8F" d="M71.674 66.175c-2.084.976-4.859 2.689-4.35 5.397.285 1.522 1.838 3.044 3.478 2.691 1.888-.405 2.95-3.526 2.665-5.208-.404-2.395-3.01-2.865-5.049-2.266-5.004 1.469-6.608 7.986-2.828 11.53 3.957 3.709 10.07 2.276 12.356-2.489 1.31-2.729 1.15-6.162-.862-8.527-1.852-2.177-4.922-2.689-7.286-1.048l.922.102c-1.861-1.638-1.395-4.625.753-5.813 2.157-1.194 4.762-.48 6.616.894 3.16 2.34 5.748 6.943 4.706 10.918-.916 3.496-4.138 6.077-7.45 7.23-2.22.772-4.894 1.12-6.854-.418-1.488-1.166-2.226-3.037-2.848-4.76-.678-1.876-1.45-3.926-1.386-5.945.078-2.467 1.452-3.766 3.517-4.753 1.475-.706 3.329-1.88 2.321-3.785-.924-1.747-3.67-1.874-5.368-1.66-2.451.31-4.715 1.597-6.418 3.353-8.815 9.092.21 21.683 10.273 24.555 5.474 1.564 11.836.825 15.889-3.458 3.705-3.915 4.759-9.728 3.998-14.91-.91-6.205-4.602-12.864-11.1-14.534-5.822-1.497-12.346 2.489-11.715 8.905.095.96 1.613.941 1.517-.027-.402-4.075 2.804-7.449 6.852-7.716 4.162-.274 7.825 2.316 10.011 5.648 3.452 5.262 4.333 12.737 1.496 18.46-6.693 13.505-30.074 5.15-29.287-8.946.178-3.194 1.984-6.288 4.572-8.158 1.343-.971 2.937-1.632 4.606-1.726.621-.035 2.363-.132 2.777.435 1.166 1.598-.588 1.974-1.494 2.4-5.398 2.53-4.058 8.327-2.278 12.938.785 2.035 1.818 4.172 3.757 5.353 2.272 1.383 5.186 1.023 7.59.196 4.39-1.507 8.574-5.301 8.784-10.18.228-5.283-4.503-12.078-10.105-12.402-4.76-.276-9.005 5.278-4.786 8.993.24.211.64.296.922.101 4.956-3.444 7.892 4.098 5.89 7.853-1.783 3.344-5.74 4.603-8.99 2.498-3.665-2.372-3.18-8.023 1.042-9.566 1.619-.59 3.355-.582 3.345 1.983-.004.91-.534 1.674-1.353 1.99-2.515.97-1.567-2.424-.43-3.445.69-.62 1.538-1.004 2.37-1.393.881-.413.087-1.7-.788-1.29"/>
        <path fill="#8F8F8F" d="M74.764 36.383c-1.743-.046-4.138.14-4.953 2.184-.518 1.294-.087 3.205 1.146 3.809 1.544.755 3.473-1.2 4.022-2.679.667-1.802-.405-3.257-1.94-3.872-3.808-1.526-7.943 2.438-7.14 6.743.92 4.934 6.092 6.87 9.713 3.957 3.666-2.948 3.733-11.643-2.177-10.8l.69.557c-1.287-3.774 3.107-4.884 5.284-2.851 1.131 1.054 1.727 2.652 2.038 4.205.737 3.703-.035 7.7-3.322 9.495-2.33 1.273-5.368 1.399-7.759.279-3.668-1.719-3.004-7.111-1.982-10.592.62-2.109 1.783-3.458 3.894-3.586.814-.05 1.687.202 2.474-.165 1.34-.627 1.467-2.278.629-3.477-2.184-3.118-6.742-2.798-9.598-1.235-8.78 4.803-5.616 18.014.834 23.417 3.373 2.824 7.807 4.06 11.817 2.158 4.048-1.92 6.772-6.392 7.842-10.964 1.228-5.257.521-11.74-3.88-14.996-3.744-2.769-8.886-1.454-10.591 3.262-.335.927 1.037 1.3 1.369.386 1.267-3.504 5.127-4.442 7.961-2.687 2.877 1.782 4.166 5.383 4.27 8.858.167 5.585-2.377 11.967-7.121 14.521-10.828 5.828-23.333-14.857-12.537-22.157 1.864-1.262 4.227-1.824 6.352-1.081 1.075.375 1.408.446 1.368 1.687-.044 1.438-.124.905-1.214.922-.878.014-1.63.107-2.416.578-3.27 1.963-3.997 7.907-3.56 11.573 1.009 8.452 13.503 7.14 16.15.586 1.652-4.09.625-10.918-3.329-13.059-3.326-1.8-7.81 1.02-6.328 5.361.099.292.372.6.69.555 4.627-.66 3.909 6.144 1.157 8.14-2.541 1.843-6.038.928-7.13-2.34-.915-2.737.714-5.54 3.315-5.936.448-.068 1.9-.188 2.222.372.383.67.22 3.12-.822 3.301l-1.143-.61c.263-1.403.904-2.125 1.924-2.17.574-.17 1.222-.114 1.806-.099.91.025.883-1.526-.025-1.55M94.885 52.784c-.877 1.907-1.912 4.83.122 6.41 1.14.884 3.233 1.021 4.103-.327.916-1.419-.148-4.078-1.337-5.075-1.57-1.316-3.526-.333-4.623 1.098-2.853 3.72-.409 9.362 4.221 9.851 4.782.505 8.395-3.66 7.54-8.28-.517-2.788-2.623-5.275-5.472-5.875-2.655-.56-5.123.929-5.863 3.496.236-.185.47-.372.707-.557-3.265-.127-3.563-3.975-1.638-5.862 1.855-1.817 4.603-1.807 6.969-1.248 4 .948 7.124 3.633 7.094 7.932-.023 3.078-1.607 6.92-4.338 8.587-2.019 1.23-4.107.466-5.997-.512-1.968-1.02-4.354-2.324-5.542-4.248-1.23-1.99-.419-3.34.299-5.24.27-.713.58-1.53.28-2.296-.647-1.642-2.558-1.449-3.857-.788-3.664 1.86-4.987 6.497-4.367 10.292 1.644 10.067 14.392 11.794 22.116 7.826 4.293-2.207 7.663-6.2 7.918-11.145.267-5.204-2.886-10.158-6.891-13.258-4.52-3.496-11.145-5.457-16.279-2.044-4.128 2.746-5.226 8.572-1.578 12.18.681.674 1.714-.393 1.034-1.066-2.588-2.56-2.243-6.667.355-9.086 2.67-2.488 6.61-2.785 9.975-1.764 5.983 1.816 11.649 7.537 11.905 14.003.481 12.173-19.912 17.92-25.975 7.332-1.232-2.153-1.571-4.851-.956-7.247.326-1.268.905-2.5 1.823-3.456.35-.365.755-.722 1.182-.997.777-.76 1.498-.643 2.165.354-.214.58-.465 1.146-.752 1.693-1.99 4.826 2.235 7.92 6.056 10.045 4.495 2.498 8.42 1.631 11.096-2.852 2.108-3.533 2.687-8.467.065-11.895-2.964-3.875-10.308-5.817-14.342-2.59-3.388 2.71-2.69 8.641 2.206 8.833.332.012.622-.257.709-.557.87-3.02 4.562-2.984 6.558-1.145.997.92 1.627 2.158 1.863 3.48.53 2.972-1.143 5.764-4.175 6.407-3.011.639-5.8-1.438-5.827-4.539a4.575 4.575 0 0 1 .428-2.023c.099-.32.266-.601.5-.843.644-1.088 1.707-.97 3.188.354.153.575-.213 2.067-.927 2.203-1.142-.943-1.521-1.956-1.138-3.037.148-.628.38-1.229.696-1.8.397-.863-.9-1.593-1.3-.724M46.57 21.937c-.806 1.914-1.526 5.114 1.047 5.865 1.604.468 2.86-.68 2.647-2.426-.28-2.284-2.11-4.159-4.14-2.659-1.793 1.324-2.165 4.185-1.318 6.205 2.162 5.158 9.351 2.833 9.655-2.387.147-2.553-1.154-5.114-3.385-6.13-2.306-1.05-4.759.036-5.498 2.62l.71-.6c-3.34-.301-1.985-3.41-1.02-4.384.877-.883 1.949-1.131 3.092-1.142 1.409-.015 3.033.5 4.249 1.252 2.88 1.783 3.266 5.439 2.009 8.504-.42 1.027-1.053 2.108-1.854 2.844-1.655 1.517-3.516.81-5.21-.175-1.15-.668-2.643-1.554-3.367-2.737-1.327-2.164-.015-3.313.202-5.21.395-3.453-3.397-2.085-4.711-.595-2.013 2.282-2.377 5.854-1.446 8.737 2.489 7.718 12.495 7.864 17.857 3.837 6.73-5.055 4.964-14.453-1.15-19.17-3.534-2.726-8.647-4.074-12.36-.946-2.874 2.424-3.284 6.84-.737 9.682.667.743 1.701-.409 1.036-1.15-2.33-2.602-1.14-6.407 1.632-7.968 2.661-1.498 5.867-.677 8.345.836 4.35 2.657 7.94 8.7 5.305 13.98-2.216 4.437-7.63 6.468-12.092 5.615-4.456-.85-7.971-5.068-6.528-10.053.232-.8.814-2.296 1.57-2.629 1.692-.746 1.1 1.044.9 1.995-.32 1.505.16 2.96 1.04 4.15 1.72 2.33 5.842 5.046 8.72 4.207 2.867-.835 4.628-4.6 4.967-7.517.381-3.283-.932-6.27-3.711-7.802-2.86-1.578-7.15-2.148-9.334.956-1.86 2.644-.438 6.204 2.623 6.48.332.03.62-.287.709-.6 1.165-4.072 5.742-.572 5.95 2.337.158 2.195-1.146 4.034-3.18 4.385-2.064.356-3.906-1.11-3.937-3.42-.024-1.879.67-2.52 2.483-2.387.115.302.23.604.343.906-1.415-.54-1.686-1.381-.811-2.523.391-.932-.909-1.72-1.303-.783M90.404 36.712c-1.279-2.491 2.28-7.27 3.69-9.112a28.49 28.49 0 0 1 5.683-5.59c4.295-3.181 9.376-5.023 14.657-5.301.933-.05.911-1.546-.025-1.497-6.324.333-12.34 2.792-17.203 6.964a29.444 29.444 0 0 0-6.081 7.194c-1.36 2.269-3.327 5.467-1.963 8.12.437.851 1.68.072 1.242-.778M111.985 13.806c-2.656.496-2.613-4.191-2.519-5.23.079-.864 1.353-6.582 3.2-4.04.745 1.027.697 3.236.712 4.428.023 1.809-.461 3.366-1.855 4.833-.673.707.873 1.369 1.538.67 2.453-2.581 2.29-5.718 1.673-8.752-.293-1.445-1.3-4.753-4.09-3.394-3.85 1.875-4.937 14.065 1.84 12.798 1.103-.207.604-1.519-.499-1.313"/>
        <path fill="#8F8F8F" d="M107.597 17.752c-.144 2.171.372 4.325 1.608 6.207.83 1.263 2.31 3.085 4.203 2.442 1.899-.645 2.067-2.684 1.25-4.116-1.114-1.954-3.278-3.38-5.493-4.19-.877-.32-1.613.843-.729 1.166 1.204.44 2.3.997 3.262 1.795.513.428 1.018.918 1.389 1.455.952 1.376.342 3.503-1.687 1.916-1.936-1.512-2.456-4.553-2.315-6.698.056-.858-1.432-.831-1.488.023M101.676 21.404c-2.816-1.156-4.35-4.082-3.365-6.686.143-.387.342-.751.597-1.091l1.754-.146c.709.32 1.101 1.953 1.263 2.61.451 1.83.1 3.666-.864 5.326-.488.843.991 1.562 1.481.718 1.493-2.572 1.716-5.524.344-8.183-.822-1.594-2.608-3.502-4.652-1.927-3.887 2.994-1.552 8.95 2.61 10.657.985.403 1.82-.874.832-1.278M97.086 25.155c-.674 2.11-.249 4.357 1.235 6.177 1.093 1.342 3.835 3.602 5.965 2.42 2.145-1.19 1.484-3.973.284-5.467-1.676-2.086-4.661-2.847-7.524-3.118-1.086-.105-1.046 1.302.03 1.405 1.938.185 3.988.634 5.402 1.814.594.494 1.083 1.13 1.322 1.803.374 1.059.003 2.847-1.877 2.117-2.902-1.128-3.93-4.467-3.185-6.802.279-.876-1.373-1.225-1.652-.35M92.968 28.248c-3.291 1.63-6.303-1.357-6.123-4.26.064-.993.594-1.465 1.766-1.307.713.096 1.529.515 2.087.913 1.457 1.038 2.133 2.968.942 4.403-.695.838.612 1.99 1.316 1.142 1.672-2.015 1.387-4.7-.64-6.453-1.466-1.268-5.116-2.852-6.656-.89-1.472 1.872-.52 5.115 1.014 6.7 1.82 1.878 4.828 2.354 7.245 1.158 1.03-.512.08-1.917-.95-1.406M89.14 32.935c-1.07 1.927.028 4.712 1.04 6.442.985 1.688 2.931 2.896 4.733 1.887 1.877-1.049 1.51-3.565.527-5.182a8.376 8.376 0 0 0-5.421-3.868c-.997-.21-1.393 1.456-.394 1.668 1.227.259 2.35.788 3.303 1.678.808.757 2.581 2.918 1.4 4.025-2.135 2-4.744-4.123-3.81-5.807.527-.952-.854-1.79-1.378-.843M115.588 16.288c.81 4.07 5.746 6.375 8.197 2.854 1.131-1.623 1.092-3.985-.582-5.015-2.166-1.334-5.353-.73-7.62-.157-.82.207-.45 1.705.367 1.498 1.454-.368 2.923-.542 4.41-.44.705.049 1.778.028 2.389.565 1.183 1.044.184 2.635-.608 3.205-2.049 1.477-4.79-.358-5.304-2.953-.195-.976-1.443-.535-1.249.443"/>
        <path fill="#8F8F8F" d="M99.595 39.337c4.49-8.25 16.215-10.226 23.637-3.894l.137-1.116c-6.785 4.815-16.264 5.34-23.623 1.254-.863-.48-1.627.76-.767 1.237 7.782 4.323 18.011 3.826 25.206-1.28.386-.272.54-.772.136-1.116-8.107-6.916-21.16-4.846-26.096 4.22-.445.819.922 1.516 1.37.695M111.4 44.39c1.726 4.401 4.29 9 8.841 11.166 3.818 1.816 8.433 1.602 11.666-1.175.303-.262.236-.742-.019-1-5.2-5.284-11.983-8.701-19.44-9.769-.922-.13-1.291 1.239-.362 1.371 7.228 1.036 13.743 4.29 18.788 9.416l-.019-1.001c-3.104 2.668-7.746 2.38-11.088.269-3.502-2.21-5.525-6.004-6.966-9.677-.332-.844-1.737-.454-1.402.4M37.606 31.891c-2.363-2.945-6.59-4.102-10.514-3.135-2.122.523-4.035 1.614-5.609 2.958-1.031.881-3.066 2.525-2.518 3.958 1.05 2.752 7.174 2.346 9.565 1.755 3.83-.948 6.88-3.34 8.335-6.589.357-.799-1.117-1.12-1.47-.332-1.09 2.438-3.328 4.307-6.08 5.279-2.064.729-5.55 1.3-7.601.197-3.256-1.752 3.887-5.465 5.807-5.945 3.227-.807 6.83.106 8.79 2.548.559.698 1.86.01 1.295-.694M27.04 42.7c-8.822.483-10.043 10.335-10.055 17.113 0 .59.64.838 1.12.606 6.836-3.296 10.94-10.656 10.094-18.105-.104-.921-1.579-.904-1.473.025.794 6.994-2.968 13.745-9.387 16.84l1.12.608c.01-5.887.712-15.202 8.607-15.636.944-.051.923-1.503-.026-1.451M59.801 35.397c.106-.16.192-.333.254-.497l5.515-14.85c.098-.261.195-.552.08-.809-.15-.343-.597-.457-.98-.55-1.94-.475-3.714-1.54-4.988-2.997-.786-.9-1.404-2.034-1.238-3.188.45-3.148 3.52-2.19 4.61-.406.92 1.508 1.553 3.1 2.032 4.774.192.67 1.374.704 1.504-.024.2-1.127.404-2.264.766-3.356.284-.862 1.335-3.74 2.583-3.918 1.175-.167 1.365 1.431 1.242 2.099-.122.67-.344 1.269-.638 1.886-.767 1.61-1.967 2.78-3.576 3.673l.966 1.137c1.14-1.086 2.362-2.08 3.727-2.908 1.41-.856 3.606-2.315 4.994-.544 1.895 2.419-1.774 3.794-3.574 4.263-2.107.55-4.14.525-6.27.101-.98-.195-1.369 1.227-.386 1.423 3.125.622 6.503.486 9.39-.93 1.86-.911 3.907-2.868 3.361-5.032-1.488-5.89-10.374.714-12.363 2.608-.627.597.205 1.558.966 1.136 2.109-1.171 3.736-2.905 4.537-5.108.508-1.395 1.165-4.175-.257-5.303-1.553-1.232-3.597.56-4.529 1.717-1.538 1.907-2.04 4.387-2.45 6.69l1.503-.025c-.785-2.74-4.75-11.977-8.89-6.843-3.591 4.453 2.614 9.6 6.943 10.552a.8.8 0 0 0-.484-.722l-5.614 15.091c-.176.474-.286 1.129.185 1.367.412.208.808-.102 1.08-.507M87.047 73.054c8.938 8.037 20.843 12.356 33.036 11.96.951-.031.928-1.464-.027-1.433-11.807.384-23.323-3.77-31.98-11.557-.699-.628-1.728.402-1.029 1.03"/>
        <path fill="#8F8F8F" d="M118.256 85.891c2.817-3.8 7.215-5.521 11.27-4.002 1.356.508 4.518 2.386 1.729 4.556-.722.561-2.502.444-3.33.485-2.623.132-5.177-.368-7.682-1.305-.9-.339-1.258 1.404-.363 1.74 3.712 1.39 7.975 2.016 11.787.804 2.453-.78 3.056-3.351 1.386-5.735-4.014-5.725-12.363-2.49-15.847 2.21-.633.853.415 2.104 1.05 1.247M111.747 81.776c-.065-.308-.223-.606-.362-.898a7.38 7.38 0 0 1-.311-5.45c.102-.304.232-.613.48-.83.282-.249.672-.345 1.046-.432 5.835-1.368 1.54 6.671-.737 8.16-2.891 1.891-5.345 4.49-3.824 8.05.903 2.11 3.43 3.085 5.211 1.228 1.775-1.848 1.069-3.946.337-6.042-.146-.418-1.392-5.122-2.469-3.618-.34.475-.129 1.11.091 1.644.344.83.686 1.658 1.028 2.489.36.872.728 1.79.596 2.719-.132.928-.949 1.842-1.945 1.78-.826-.051-1.473-.754-1.692-1.503-.441-1.514.494-3.1 1.7-4.188 1.204-1.089 2.695-1.877 3.845-3.018 1.583-1.568 2.419-3.776 2.247-5.93-.154-1.913-1.47-4.01-3.515-4.105-1.545-.073-2.906 1.051-3.592 2.352-1.305 2.47-.729 5.456.36 8.017.122.286.284.6.594.696.45.138.904-.309.94-.752a1.285 1.285 0 0 0-.028-.369M104.252 80.24l-.077-.23c-.505-1.375-1.076-2.759-1.165-4.252-.088-1.492.444-3.152 1.607-3.776.288-.155.67-.22.89.046.12.148.16.36.188.562.336 2.358-.055 4.362-1.382 6.19-.607.836-1.29 1.595-1.955 2.367-2.264 2.625-4.974 6.208-4.026 10.272.624 2.676 3.016 4.277 4.804 1.892 2.338-3.12 1.948-8.555.822-12.136-.3-.958-1.614-.516-1.31.45.95 3.02 1.28 6.898-.09 9.859-.518 1.116-1.722 1.28-2.622.4-.526-.516-.444-2.473-.314-3.197.293-1.628 1.104-3.106 2.004-4.363 2.212-3.09 6.065-5.896 5.945-10.45-.066-2.52-2.464-5.232-4.536-3.248-2.37 2.268-1.354 7.058-.233 9.77.27.657 1.002 1.36 1.406.806.19-.258.143-.625.044-.962M94.216 74.574c-1.266-1.771.956-4.616 2.263-2.402.85 1.438-.38 2.585-1.537 3.056-1.193.484-2.177.869-3.139 1.844-1.304 1.322-3.334 3.91-3.08 6.036.228 1.908 1.954 2.407 3.303 1.475 2.161-1.494 2.254-4.549 2.536-7.028.067-.588.003-1.387-.525-1.493-.623-.126-.869.848-.888 1.545a17.33 17.33 0 0 1-.476 3.595c-.188.78-.656 1.71-1.38 1.59-.733-.121-.926-1.258-.609-1.996.903-2.102 2.756-3.325 4.636-4.154 1.877-.828 3.437-2.146 2.573-4.617-1.652-4.726-7.51-.45-4.82 3.317.526.736 1.676-.02 1.143-.768M48.457 87.993c-.805 1.912-1.526 5.112 1.048 5.863 1.603.468 2.86-.68 2.646-2.424-.28-2.286-2.11-4.16-4.139-2.661-1.795 1.324-2.165 4.184-1.319 6.205 2.163 5.16 9.352 2.833 9.655-2.387.147-2.553-1.154-5.114-3.386-6.13-2.305-1.05-4.757.037-5.496 2.62l.71-.6c-3.34-.302-1.985-3.41-1.02-4.384.875-.883 1.948-1.131 3.092-1.142 1.408-.014 3.033.499 4.249 1.251 2.878 1.783 3.266 5.44 2.009 8.505-.421 1.027-1.053 2.108-1.856 2.844-1.654 1.518-3.515.809-5.208-.175-1.15-.668-2.643-1.554-3.367-2.737-1.329-2.164-.016-3.313.201-5.21.396-3.453-3.398-2.086-4.712-.595-2.012 2.281-2.375 5.854-1.446 8.737 2.49 7.718 12.497 7.864 17.859 3.837 6.73-5.055 4.964-14.453-1.151-19.17-3.534-2.726-8.646-4.075-12.358-.945-2.875 2.423-3.285 6.838-.738 9.68.666.744 1.701-.408 1.036-1.15-2.331-2.6-1.141-6.405 1.631-7.967 2.662-1.498 5.868-.677 8.345.836 4.35 2.658 7.94 8.7 5.306 13.98-2.216 4.436-7.631 6.467-12.092 5.615-4.456-.85-7.972-5.068-6.529-10.054.232-.8.815-2.294 1.57-2.628 1.692-.746 1.1 1.045.899 1.994-.318 1.506.161 2.96 1.042 4.151 1.72 2.33 5.84 5.046 8.72 4.207 2.865-.835 4.627-4.599 4.966-7.517.382-3.283-.932-6.269-3.71-7.802-2.861-1.578-7.151-2.148-9.334.956-1.86 2.645-.44 6.204 2.622 6.48.333.031.62-.287.71-.6 1.165-4.073 5.74-.572 5.95 2.337.157 2.194-1.148 4.034-3.18 4.385-2.065.356-3.908-1.11-3.937-3.42-.024-1.88.669-2.518 2.483-2.388l.342.907c-1.414-.541-1.685-1.381-.812-2.524.393-.931-.907-1.719-1.301-.78M45.739 72.667c-.18 2.533-4.368 4.345-5.991 5.087a19.92 19.92 0 0 1-6.663 1.734c-4.608.376-9.138-.862-13.15-3.58-.81-.548-1.512.953-.706 1.499 4.911 3.328 10.604 4.548 16.186 3.484a21.632 21.632 0 0 0 7.605-3.033c1.831-1.167 3.967-2.521 4.158-5.221.08-1.102-1.362-1.063-1.44.03M20.33 80.649c1.69.394-.383 3.15-.872 3.742-.586.708-3.22 3.388-4.389 2.926-.832-.33 1.03-2.872 1.444-3.45.95-1.33 2.172-2.476 4.03-3.021.973-.285.524-1.518-.459-1.23-2.95.865-4.633 2.856-5.888 5.043-.65 1.13-2.2 4.208.78 4.154 3.585-.066 11.23-8.126 5.758-9.406-1.003-.235-1.403 1.008-.403 1.242"/>
        <path fill="#8F8F8F" d="M27.904 77.185c1.47-1.68 2.309-3.678 2.292-5.766-.011-1.377-.372-3.173-2.374-3.352-1.808-.162-2.986 1.172-3.22 2.51-.347 2 .676 4.127 2.027 5.731.614.73 2.05.014 1.43-.722-.73-.867-1.298-1.782-1.596-2.82-.144-.502-.257-1.03-.241-1.549-.2-.762.18-1.052 1.138-.87.94-.39 1.32-.186 1.142.612.17 2.02-.643 3.929-2.058 5.546-.633.724.835 1.395 1.46.68M31.499 80.534c1.477 2.015.834 4.913-1.507 6.272-2.532 1.47-1.718-1.943-1.166-2.975.71-1.326 1.867-2.34 3.325-3.072.966-.485.063-1.758-.905-1.273-2.32 1.165-4.043 3.066-4.63 5.33-.409 1.576-.4 4.326 2.336 3.966 4.631-.613 6.258-5.989 4.033-9.022-.593-.81-2.084-.04-1.486.774M35.48 77.292c1.565-1.382 2.398-3.358 2.248-5.397-.101-1.38-.786-3.82-2.609-3.84-1.868-.02-2.927 2.087-3.025 3.6-.15 2.301 1.357 4.2 3.128 5.59.741.582 1.787-.444 1.04-1.03-1.05-.826-2.066-1.792-2.486-3.065-.2-.606-.073-4.85 1.795-3.252.815.696.751 2.627.572 3.504-.237 1.149-.848 2.106-1.74 2.895-.71.627.371 1.62 1.077.995M42.34 79.137c3.002.221 3.628 3.324 2.203 5.251-1.09 1.473-2.447.003-2.867-1.125-.496-1.329-.035-2.862 1.54-3.411 1.1-.383.589-1.964-.522-1.577-2.194.765-3.388 2.667-2.984 4.743.323 1.648 2.308 4.652 4.654 3.74 2.067-.805 3.081-3.534 2.758-5.365-.387-2.193-2.371-3.72-4.815-3.9-1.184-.087-1.144 1.557.033 1.644M45.085 77.136c1.67-.852 2.068-3.417 2.096-5.157.028-1.8-.934-3.722-2.833-3.912-1.718-.172-2.68 1.434-2.806 3.018-.188 2.326.828 4.565 2.406 6.16.765.774 1.916-.464 1.15-1.237-.802-.81-1.402-1.745-1.706-2.871-.218-.808-.642-3.476.904-3.354 2.067.162 1.295 5.186-.072 5.884-.955.488-.091 1.956.86 1.47M20.475 77.401c1.414-3.852-2.676-8.835-7.002-7.107-2.003.8-2.823 2.846-1.517 4.598 1.602 2.149 4.699 3.529 7.184 4.428 1.058.383 1.483-1.255.437-1.634a19.366 19.366 0 0 1-4.197-2.107c-.622-.417-1.347-.892-1.833-1.464-.959-1.127-.065-2.241 1.258-2.425 2.899-.405 4.839 2.923 3.97 5.292-.376 1.026 1.328 1.436 1.7.419M47.919 101.394c-4.766 7.21-2.615 16.458 3.027 22.4 6.36 6.698 16 9.894 24.875 10.278 8.38.364 17.11-2.04 23.398-8.001 5.025-4.765 7.968-11.53 8.319-18.563.2-4.013-.437-8.08-1.827-11.828-.523-1.409-2.845-7.128-4.868-4.114-.541.807.744 1.544 1.28.746.237-.354 2.222 3.9 2.394 4.397.48 1.386.857 2.807 1.126 4.253a28 28 0 0 1 .18 9.11c-.85 5.83-3.647 11.235-7.89 15.157-11.374 10.516-30.696 9.212-42.63.41-7.169-5.29-11.572-15.225-6.104-23.498.535-.81-.75-1.55-1.28-.747"/>
        <path fill="#8F8F8F" d="M99.403 124.672h42.763c.698 0 1.266-.423 1.266-.944 0-.522-.568-.944-1.266-.944H99.403c-.699 0-1.266.422-1.266.944 0 .52.567.944 1.266.944M1.27 124.672h48.415c.702 0 1.27-.423 1.27-.944 0-.522-.568-.944-1.27-.944H1.271c-.702 0-1.271.422-1.271.944 0 .52.57.944 1.27.944"/>
    </g>
</svg>
